# xmcd
#
# Track frame offsets:
#	150
#	18621
#	37798
#	56955
#	72031
#	89166
#	107037
#	122118
#	143890
#	159956
#	174903
#	191731
#	212500
#	228229
#	241581
#	256222
#
# Disc length: 3650 seconds
#
# Revision: 0
# Processed by: cddbd v1.5.2PL0 Copyright (c) Steve Scherf et al.
# Submitted via: audiograbber 1.80
#
DISCID=d40e4010
DTITLE=Varios - 100 x 100 Country - CD 2-2
DYEAR=2003
DGENRE=Country
TTITLE0=Mark Chesnutt - I don't want to miss a thing
TTITLE1=Reba McEntire - For my broken heart
TTITLE2=Trisha Yearwood - Walkaway Joe. Dúo con DON HENLEY
TTITLE3=Doug Stone - I'd be better off (in a pine box)
TTITLE4=Kenny Chesney - You had me from hello
TTITLE5=Vince Gill - I still believe in you
TTITLE6=Ricky van Shelton - Life turnet her that way
TTITLE7=Lee Ann Womack - I hope you dance. Con SONS OF THE DESERT
TTITLE8=Jo Dee Messina - Lesson in leavin'
TTITLE9=Wade Hayes - What I meant to say
TTITLE10=Brad Paisley - Who needs pictures
TTITLE11=Alabama - God must have spent a little more time on you. Con 'N SYNC
TTITLE12=Joe Diffie - A night to remember
TTITLE13=Diamond Rio - In a week or two
TTITLE14=Chely Wright - Single white female
TTITLE15=Collin Raye - Not that different
EXTD=
EXTT0=
EXTT1=
EXTT2=
EXTT3=
EXTT4=
EXTT5=
EXTT6=
EXTT7=
EXTT8=
EXTT9=
EXTT10=
EXTT11=
EXTT12=
EXTT13=
EXTT14=
EXTT15=
PLAYORDER=
